<svg xmlns="http://www.w3.org/2000/svg" xmlns:xlink="http://www.w3.org/1999/xlink" viewBox="0 0 419.51 369.08"><defs><style>.cls-1{isolation:isolate;}.cls-2,.cls-22{opacity:0.33;}.cls-2,.cls-22,.cls-28{mix-blend-mode:multiply;}.cls-22,.cls-3{fill:#a8b4e5;}.cls-4{fill:#edb0ff;}.cls-11,.cls-15,.cls-5{fill:#fff;}.cls-5{opacity:0.46;}.cls-6{fill:#42386a;}.cls-7{fill:#fcffff;}.cls-8{fill:#2c3e82;}.cls-9{fill:#2c3b82;}.cls-10{fill:#435ac7;}.cls-12{opacity:0.54;}.cls-13{fill:#fdffff;}.cls-14{fill:#7e96f7;}.cls-15{opacity:0.51;}.cls-16{fill:#2f88f1;}.cls-17{fill:#4848ef;}.cls-18{fill:#51577a;}.cls-19{fill:#5b6184;}.cls-20{fill:#e1e5f4;}.cls-21{fill:#2d8aff;}.cls-23{fill:#151d3d;}.cls-24{fill:url(#linear-gradient);}.cls-25{fill:url(#linear-gradient-2);}.cls-26{fill:#616891;}.cls-27{fill:#7077a0;}.cls-28,.cls-39{fill:#a8b9e5;}.cls-28{opacity:0.4;}.cls-29{fill:#44486c;}.cls-30{fill:#9241d8;}.cls-31{fill:#ab60eb;}.cls-32{fill:#00e0ff;}.cls-33{fill:#91a8db;}.cls-34{fill:#464777;}.cls-35{fill:#3a3b66;}.cls-36{fill:#46466b;}.cls-37{fill:#8040bc;}.cls-38{fill:#d0ddf4;}.cls-40{fill:#464a6b;}.cls-41{fill:#173e49;}.cls-42{fill:#17492f;}.cls-43{fill:#e1e6f4;}</style><linearGradient id="linear-gradient" x1="1452.56" y1="320.01" x2="1478.22" y2="320.01" gradientTransform="translate(-1283.71)" gradientUnits="userSpaceOnUse"><stop offset="0" stop-color="#e1e5f4"/><stop offset="0.56" stop-color="#abb6e6"/><stop offset="0.65" stop-color="#a8b4e5"/></linearGradient><linearGradient id="linear-gradient-2" x1="1421.74" y1="336.29" x2="1449.91" y2="336.29" xlink:href="#linear-gradient"/></defs><title>Concept - Brainstorm Process</title><g class="cls-1"><g id="Layer_2" data-name="Layer 2"><g id="image"><g class="cls-2"><path class="cls-3" d="M393.38,179.39c0-40-35.27-72.39-78.77-72.39s-78.78,32.41-78.78,72.39c0,21.9,10.58,41.52,27.29,54.79,9.14,10,13.32,22.42,15.22,31.37a25.14,25.14,0,0,0,16.46,18.56c13.57,4.66,26.67,5.24,39.16.53a24.67,24.67,0,0,0,15.43-18.18c1.71-8.36,5.72-20.41,15.13-30.76.27-.29.52-.58.74-.86C382.45,221.56,393.38,201.65,393.38,179.39Z"/></g><path class="cls-4" d="M189,137.27c8.59,12.75,12.13,29.48,15.46,44.3.09.38.49,3.82.86,4-1.53-.63.83-3.67-.52-1.06a30.23,30.23,0,0,0-1.34,3.74,148.35,148.35,0,0,0-6.83,31.86c-.63,5.84,8.51,5.79,9.13,0a135.59,135.59,0,0,1,7.2-31.41c1.35-3.75,1.11-6,.23-9.86-3.49-15.44-7.34-32.84-16.31-46.15-3.27-4.84-11.18-.28-7.88,4.61Z"/><path class="cls-4" d="M126.11,169.91l-3,3.87a5.71,5.71,0,0,1-8,.95h0a5.72,5.72,0,0,1-1-8l3-3.87a5.71,5.71,0,0,1,8-1h0A5.71,5.71,0,0,1,126.11,169.91Z"/><path class="cls-4" d="M194.06,221.49l3.05,1.38a4.7,4.7,0,0,0,6.2-2.34h0a4.71,4.71,0,0,0-2.34-6.2L197.92,213a4.7,4.7,0,0,0-6.2,2.34h0A4.7,4.7,0,0,0,194.06,221.49Z"/><path class="cls-5" d="M158.67,103.26,158.6,105s-.22,5.17,4.87,2.5,4.94-9.14,4.94-9.14S164.54,97.89,158.67,103.26Z"/><path class="cls-6" d="M169.36,97s-4.71-.3-12.12,6.06l-.2,2.06.06,0s-.24,6,6.41,2.59S169.36,97,169.36,97Zm-5.94,9.78c-4.95,2.57-4.77-1.92-4.77-1.92l0-1.48c5.68-4.94,9.46-4.74,9.46-4.74S168.36,104.16,163.42,106.73Z"/><polygon class="cls-6" points="154.61 106.2 158.56 104.4 158.78 102.16 154.83 103.96 154.61 106.2"/><path class="cls-6" d="M169,98.67l.7-.32a1.61,1.61,0,0,0,.78-1.19h0c0-.48-.23-.73-.61-.56l-.7.32a1.56,1.56,0,0,0-.77,1.19h0C168.39,98.59,168.66,98.84,169,98.67Z"/><path class="cls-6" d="M143.5,110.32l.7-.32a1.54,1.54,0,0,0,.77-1.19h0c.05-.48-.22-.73-.6-.55l-.7.32a1.58,1.58,0,0,0-.78,1.18h0C142.85,110.25,143.12,110.5,143.5,110.32Z"/><path class="cls-5" d="M154.51,105.29l-.27,1.76s-.77,5.28-5.65,7.16-3.45-5.11-3.45-5.11S149.33,105,154.51,105.29Z"/><path class="cls-6" d="M148.32,114.56a12.21,12.21,0,0,0,7.51-8.94l0,0,.2-2.06c-6.81.12-12,4.95-12,4.95S141.76,117.13,148.32,114.56Zm-3.26-5.44s4.17-3.82,9.37-3.85l-.24,1.58a9.08,9.08,0,0,1-5.59,6.64C143.72,115.4,145.06,109.12,145.06,109.12Z"/><path class="cls-7" d="M153.28,108h0c.16-.2.21-.45.11-.56l-1.18-1.3c-.1-.11-.32,0-.48.15h0c-.17.2-.22.45-.12.56l1.18,1.3C152.9,108.25,153.11,108.18,153.28,108Z"/><path class="cls-7" d="M167.4,101.26h0c.16-.19.21-.44.11-.55l-1.18-1.3c-.1-.12-.31,0-.48.15h0c-.16.2-.21.45-.11.56l1.18,1.3C167,101.53,167.23,101.46,167.4,101.26Z"/><path class="cls-4" d="M176,132.88l-3.69-16.46-10,6.76,3,15C165.63,140.59,176.76,138.47,176,132.88Z"/><path class="cls-4" d="M170,92.43s10.06-7,10.16,10a29.71,29.71,0,0,1-16.85,26.73c-6,2.88-13.45-.81-13.78-6.71-1.45-8.6-1.47-16.64,1.36-23.57-.4-7.11,4.49-4.58,12.95-5Z"/><path class="cls-8" d="M175.7,125.48s11.64-4.32,10.53-20.69C185,87.07,168.74,88.6,159.68,87.73c-4-.38-3.07-1.4-7.18,2.26-3.73,3.33-4,11.26,1.39,11.74,2.13.19,1.16,5.91,1.58,7.88.77,3.49,2.94,5.19,3.75,8.58.76,3.2,5.48,8.22,8.55,8.57C173.23,127.4,175.7,125.48,175.7,125.48Z"/><path class="cls-6" d="M143.77,110.86l15,1.44a1,1,0,0,0,1.07-.88h0a1,1,0,0,0-.88-1.06l-15-1.44a1,1,0,0,0-1.06.88h0A1,1,0,0,0,143.77,110.86Z"/><path class="cls-8" d="M165,119.66c.56.41,1.81,12.25-8.16,10.34s-7.95-11.89-7.95-11.89,7.91,2.06,10.1-7.75S165,119.66,165,119.66Z"/><path class="cls-4" d="M156.49,114.76c-.24,2.8,1.19,5.21,3.2,5.38a2.35,2.35,0,0,0,.65,0c1.74-.28,3.21-2.24,3.42-4.74.24-2.8-1.19-5.21-3.2-5.38S156.73,112,156.49,114.76Z"/><ellipse class="cls-9" cx="314.54" cy="336.33" rx="12.68" ry="21.96" transform="translate(-23.44 649.09) rotate(-89.7)"/><polygon class="cls-10" points="345.7 322.89 283.17 323.88 283.17 257.42 345.7 257.42 345.7 322.89"/><ellipse class="cls-10" cx="314.44" cy="323.53" rx="31.27" ry="18.14" transform="translate(-0.86 0.84) rotate(-0.15)"/><path class="cls-9" d="M345.8,275.51c-.44-.28-.89-.56-1.36-.83-16.67-9.62-43.6-9.66-60.16-.1l-1,.61v33.4c.39.25.79.49,1.2.73,16.67,9.62,43.6,9.66,60.16.1.4-.23.79-.47,1.17-.71Z"/><ellipse class="cls-10" cx="314.35" cy="285.55" rx="24.56" ry="42.54" transform="translate(27.15 598.39) rotate(-89.7)"/><rect class="cls-10" x="271.82" y="270.61" width="85.07" height="15.68"/><ellipse class="cls-11" cx="314.35" cy="270.61" rx="24.56" ry="42.54" transform="translate(42.09 583.53) rotate(-89.7)"/><g class="cls-12"><path class="cls-13" d="M390.83,180.21c0-38.82-34.24-70.28-76.48-70.28s-76.47,31.46-76.47,70.28c0,21.25,10.26,40.3,26.49,53.19,8.87,9.76,12.93,21.76,14.78,30.45a24.41,24.41,0,0,0,16,18c13.17,4.53,25.89,5.08,38,.52a24,24,0,0,0,15-17.65c1.66-8.12,5.56-19.82,14.69-29.86.26-.29.5-.57.72-.85C380.22,221.14,390.83,201.82,390.83,180.21Z"/></g><ellipse class="cls-14" cx="313.61" cy="262.6" rx="15.27" ry="26.44" transform="translate(49.35 574.82) rotate(-89.7)"/><path class="cls-14" d="M318.14,268.36a2,2,0,0,1-2-2v-52l-.68-.12a43.35,43.35,0,0,1-7.35-2v49.52a2,2,0,1,1-4,0V210.64A43.49,43.49,0,0,1,293.05,203c-5.5-5.23-9-11.43-9.66-17-.63-5.41,1.61-9.63,6.13-11.56,4.32-1.85,8.08-1.77,11.17.22,7,4.51,7.4,17.5,7.42,18v15.35a40.39,40.39,0,0,0,8,2.3l.27.05c1.22-14,4.25-22.28,9.21-25.31,2.67-1.64,5.76-1.72,9.19-.23,7.06,3.06,10.45,9.48,8.62,16.35s-9.25,13.64-21.47,13.64c-.61,0-1.23,0-1.86,0v51.54A2,2,0,0,1,318.14,268.36Zm2.22-57.49c11.11.58,17.73-5,19.24-10.65,1.32-4.94-1.12-9.41-6.36-11.69-2.2-.95-4-1-5.54,0C325.05,190.13,321.71,195.37,320.36,210.87Zm-25-33.77a11,11,0,0,0-4.24,1c-3.64,1.55-4,4.91-3.76,7.46.72,6.26,6.71,15.19,16.8,20.64V192.8c-.08-3.19-1.24-12-5.6-14.79A5.81,5.81,0,0,0,295.33,177.1Z"/><ellipse class="cls-15" cx="277.35" cy="169.85" rx="27.1" ry="19.58" transform="translate(3.86 345.86) rotate(-64.25)"/><path class="cls-16" d="M200.09,136.68c6,10.47,10.37,28.18,14.32,42.52,1.5,4,.56,7.53-1.95,7.37l-8.36,1.16c-2.07-.13-6-4.59-7-7.9l-10.61-36.46c-1.72-5.93-.45-11,2.95-11.8l.78-.11C190.85,129.27,195.56,129.25,200.09,136.68Z"/><path class="cls-17" d="M139.88,226.7a1.18,1.18,0,0,1-.07-.2h0l-7-20a11.78,11.78,0,0,1,5.92-14.42,9.43,9.43,0,0,1,13,5.73l7,20h0c0,.07.05.13.07.2a11.81,11.81,0,0,1-5.92,14.42A9.43,9.43,0,0,1,139.88,226.7Z"/><polygon class="cls-18" points="155.36 207.6 115.25 93.39 103.76 96.34 146.15 217.65 155.36 207.6"/><path class="cls-19" d="M103.76,96.35c-4.36,2.9-4.36-2.2-8.57,3.13L135,213.18c4.62,6.66,8.18,7.14,11.28,5Z"/><path class="cls-20" d="M135.68,215l-.06-.2h0L134.27,211a9.54,9.54,0,0,0,12.8,4.58,11.89,11.89,0,0,0,6.16-14.5c0-.07,0-.13-.07-.2h0L155,206h0l.08.2C158.53,216.55,139.15,225.5,135.68,215Z"/><path class="cls-20" d="M147.19,215.55c-5.36,2.44-10.58,2.09-12.54-3.48l-.77-2.38h0l-1.35-3.83c2.8,7,22.17.69,19-9.92,0-.07-.05-.13-.07-.19h0l1.86,5.09h0l.08.2A11.92,11.92,0,0,1,147.19,215.55Z"/><path class="cls-11" d="M94.84,98.78l4-26.79L115,91.88C115.22,99.71,96.51,104.84,94.84,98.78Z"/><path class="cls-21" d="M98.28,70.61l-1.2,13.18s.08,1.59,2.67.91,1.94,1.18,4.74.06,3.06-2,3.06-2Z"/><ellipse class="cls-22" cx="166.33" cy="332.37" rx="38.07" ry="21.98" transform="translate(-1.8 0.91) rotate(-0.31)"/><path class="cls-23" d="M175,325.57c.28.24,4.41,2.31,4.67,2.54s1.58,1.3,2.29,1.82c1.51,1.08,4.69,5.21,9.89,2.31,7.59-4.26-10.54-16.37-10.54-16.37l-8-4.18a3.5,3.5,0,0,0-3.18,0h0a3.65,3.65,0,0,0-1.61,5C170.2,319.75,170.3,321.51,175,325.57Z"/><path class="cls-24" d="M175.81,323.3c.28.24,4.4,2.31,4.66,2.54s1.58,1.3,2.3,1.82c1.5,1.08,4.69,5.21,9.88,2.3,7.6-4.25-10.53-16.36-10.53-16.36l-8-4.19a3.47,3.47,0,0,0-3.17,0h0a3.66,3.66,0,0,0-1.61,5C171.06,317.48,171.16,319.24,175.81,323.3Z"/><path class="cls-23" d="M146.65,342.89c.32.18,4.78,1.38,5.08,1.55.46.26,1.81,1,2.61,1.32,1.7.76,5.64,4.17,10.15.28,6.59-5.69-13.6-13.92-13.6-13.92l-8.7-2.49a3.48,3.48,0,0,0-3.11.63h0a3.66,3.66,0,0,0-.57,5.25C140.83,338.13,141.28,339.84,146.65,342.89Z"/><path class="cls-25" d="M147,340.49c.32.18,4.77,1.38,5.07,1.55.46.26,1.81,1,2.62,1.32,1.69.77,5.64,4.18,10.14.29,6.6-5.7-13.6-13.93-13.6-13.93l-8.69-2.49a3.5,3.5,0,0,0-3.11.63h0a3.65,3.65,0,0,0-.57,5.26C141.22,335.73,141.67,337.45,147,340.49Z"/><path class="cls-26" d="M155.92,231.69c-6.25,18.43-7.1,38.48-6.58,57.79.39,14.26,2.64,28.63,2.3,42.89-.21,9.09,13.91,9.09,14.12,0,.32-13.78-1.82-27.67-2.25-41.45-.58-18.61,0-37.69,6-55.48,2.93-8.62-10.71-12.32-13.61-3.75Z"/><path class="cls-26" d="M184.32,215.78c-3.29,12-4.8,24.47-6,36.84-.75,7.43-1.83,14.75-1.05,22.19,1.48,14.28,4.14,28.79,4.07,43.17-.05,9.09,14.07,9.1,14.12,0,.07-14.11-2.51-28.37-4-42.38-.7-6.64,0-12.9.63-19.57,1.17-12.28,2.61-24.57,5.87-36.5,2.4-8.77-11.21-12.52-13.61-3.75Z"/><path class="cls-20" d="M153.31,331.41c3,2.62,9.2,2.26,11.53-1.06,0,1.83,0,3.65,0,5.47-.18,7.42-11.73,7.45-11.55,0C153.33,334.35,153.33,332.89,153.31,331.41Z"/><path class="cls-26" d="M186.36,238.2h0c-1.3,1.46,4.3-5.65,2.63-4.63-3.5,2.11-23.1,15.42-27.18,15.49-4.92.08-2.05-4.68-5.72-8-3.48-3.12-4.3-8.2-4.64-12.86a6.19,6.19,0,0,1,3.18-6.85c8.71-6.59,25.83-22.91,38-17.69C206.69,209.72,192.6,231.2,186.36,238.2Z"/><path class="cls-21" d="M196.58,133.88c2.58,3.32,2.28,5.37,2.15,9.91a10.14,10.14,0,0,1-7.4,9.48l-43.65,12.24s-2.51-16.79,6.1-21.85c4.64-2.72,11.83-7.08,17.49-10.52C179.57,128.09,190.63,126.2,196.58,133.88Z"/><path class="cls-21" d="M198.89,212.77c2.77-1.07,2.11-48.83-.39-75.21l-49.13,23.38c.25,22.46,3.08,40.17.39,67.54Z"/><path class="cls-21" d="M166.16,233.36c12.13-4.43,23.7-9.27,30.49-17.61,3.34-1.92,2.92-5.32-.94-7.54h0c-3.85-2.23-9.73-2.47-13.07-.54l-30.5,17.6c-3.33,1.93-2.91,5.33.94,7.55h0C156.94,235,162.82,235.29,166.16,233.36Z"/><path class="cls-16" d="M149.37,160.94l8.1-3.85c.33,21.89,3,39.47.37,66.34l.13,0c-.05,1.52,1,3.13,3.19,4.38h0c3.85,2.23,9.73,2.47,13.07.54a138.92,138.92,0,0,0,16.62-7c-6.71,5.14-15.54,8.72-24.69,12.06-3.34,1.93-9.22,1.68-13.08-.54h0c-2.16-1.25-3.24-2.87-3.18-4.39l-.14,0C152.45,201.11,149.62,183.4,149.37,160.94Z"/><path class="cls-27" d="M167.87,329.2l-.13,5.11a1,1,0,0,1-.2.61,9.32,9.32,0,0,1-9.33,3.56,21,21,0,0,1-8.46-3.09,1.08,1.08,0,0,1-.44-1l.48-5.21a1.07,1.07,0,0,1,1.6-.83c2.47,1.46,8,3.62,14.89-.14A1.07,1.07,0,0,1,167.87,329.2Z"/><path class="cls-20" d="M182.59,316.27c3,2.62,9.19,2.25,11.53-1.06,0,1.83,0,3.65,0,5.47-.18,7.42-11.73,7.45-11.55,0C182.6,319.21,182.6,317.74,182.59,316.27Z"/><path class="cls-27" d="M197.15,314.05l-.13,5.12a1.06,1.06,0,0,1-.21.6,9.31,9.31,0,0,1-9.33,3.57,20.82,20.82,0,0,1-8.45-3.09,1.05,1.05,0,0,1-.44-1l.48-5.21a1.06,1.06,0,0,1,1.59-.83c2.47,1.46,8,3.62,14.89-.14A1.07,1.07,0,0,1,197.15,314.05Z"/><ellipse class="cls-22" cx="314.79" cy="340.33" rx="49.8" ry="28.75" transform="translate(-1.84 1.71) rotate(-0.31)"/><path class="cls-28" d="M84.92,324.23l60.17-34.64a3.64,3.64,0,0,0-.18-6.39l-86.06-43L4,272.18a3.63,3.63,0,0,0,0,6.24l77.38,45.8A3.48,3.48,0,0,0,84.92,324.23Z"/><path class="cls-11" d="M84.54,314.67l57.61-33.62-84.44-50L5.19,261.72a5.22,5.22,0,0,0,0,9l74.3,44A5,5,0,0,0,84.54,314.67Z"/><path class="cls-29" d="M141.43,274.13l.75-.44c1.59-.93,1.4-2.59-.44-3.67L64,224a6.87,6.87,0,0,0-6.25-.28l-.74.43c-1.6.94-1.4,2.59.43,3.68l77.76,46A6.87,6.87,0,0,0,141.43,274.13Z"/><path class="cls-30" d="M85.72,320.3l58.38-34.07-84.45-50-54.83,32a3.64,3.64,0,0,0,0,6.24l77.38,45.8A3.48,3.48,0,0,0,85.72,320.3Z"/><path class="cls-11" d="M84.54,314.67l57.61-33.62-84.44-50L5.19,261.72a5.22,5.22,0,0,0,0,9l74.3,44A5,5,0,0,0,84.54,314.67Z"/><path class="cls-31" d="M82.68,308.77l58.38-34.07-84.45-50-54.83,32a3.63,3.63,0,0,0,0,6.23l77.38,45.81A3.5,3.5,0,0,0,82.68,308.77Z"/><path class="cls-11" d="M19.15,260.57l17.23-10c2-1.15,1.73-3.19-.54-4.53h0c-2.27-1.34-5.73-1.5-7.7-.35L10.91,255.69c-2,1.15-1.73,3.19.54,4.53h0C13.72,261.56,17.18,261.72,19.15,260.57Z"/><polygon class="cls-32" points="10.07 270.42 2.11 275.56 52.43 294.47 10.07 270.42"/><path class="cls-4" d="M328.13,48.21a62.66,62.66,0,0,0,4.42,16.24c1.95,4.28,4.7,8.12,7.11,12.15,1.7,2.85,3.84,5.76,3.19,9-1,5-2.49,9.71-3.07,14.86-.65,5.83,8.48,5.79,9.13,0,.54-4.83,2.24-9.21,3.08-13.93.72-4-.63-7.5-2.47-11-2.35-4.5-5.41-8.57-7.81-13-2.77-5.15-3.86-10.91-4.78-16.63s-9.72-3.33-8.8,2.43Z"/><path class="cls-33" d="M326.24,48.36c3.65,10,8.51,19.38,12.56,29.21,2.78,6.74,13.91,3.79,11.09-3.06-4.06-9.83-8.92-19.19-12.56-29.21-2.51-6.9-13.62-3.92-11.09,3.06Z"/><path class="cls-4" d="M323.69,109.2A66.8,66.8,0,0,1,339.55,119c4.42,3.62,9.28,7.64,12.08,12.7,3.24,5.85,2.95,11.92,2.6,18.28l-1.8,32.3c-.32,5.87,8.81,5.85,9.13,0l1.94-34.85c.45-8.21-.84-16.15-5.69-23-6.91-9.81-18.59-18.41-29.52-23.12-5.33-2.3-10,5.56-4.6,7.89Z"/><path class="cls-4" d="M398.26,156.58c-9.43-9.85-16.08-21.49-26.75-30.28-6.22-5.12-12.27-6.79-19.85-4.6-9.9,2.87-18.68,2.88-27.59-3-4.93-3.23-9.51,4.67-4.61,7.89a37.17,37.17,0,0,0,27.25,5.69c3.23-.55,6.3-1.56,9.45-2.4,3.67-1,7.11,1.32,10.23,4,10,8.54,16.42,19.76,25.42,29.15,4.07,4.25,10.52-2.21,6.45-6.45Z"/><path class="cls-34" d="M397.75,171.78l.39-.78a.88.88,0,0,0-.43-1.19h0a.93.93,0,0,0-1.23.41l-.39.78a.88.88,0,0,0,.43,1.19h0A.93.93,0,0,0,397.75,171.78Z"/><path class="cls-35" d="M398,170.05l-2.5-3.25a.94.94,0,0,0-1.29-.19h0a.88.88,0,0,0-.2,1.25l2.5,3.26a1,1,0,0,0,1.3.18h0A.88.88,0,0,0,398,170.05Z"/><path class="cls-36" d="M385.62,160c-.35-2.13.53-5.35,1.94-5.86l6.73,2.57.57-.19c3.28.88,18.67,3.58,23.44,5.09,2.43.77.44,3.73.44,3.73-5,5.23-12.79,6.84-12.79,6.84-3.76.14-3.86-3.28-9.15-5-.9-.3-2.39-.19-2.12.5l3.17,3.68-1.58.74s-5-4.89-8.63-8A4.94,4.94,0,0,1,385.62,160Z"/><path class="cls-4" d="M388,153.15l4.17.21s14,5.16,16.74,6.24c3.17,1.26-2.34,11.28-18.48,2.1C380.77,157.69,388,153.15,388,153.15Z"/><path class="cls-37" d="M338,91.84c21.59,13.23,34.77,25.33,33.95,31,0,0-10.76-5.76-19.2-1s-6.53,8.7-4.4,10.86c.67.68-3.7,5.18-4.67,5.21-10,.29-41-3.24-41.6-21.48-.52-15.46,1.67-17.3,1.67-17.3S326.29,106.65,338,91.84Z"/><path class="cls-37" d="M299,48.24c4.33-4.65,12.22-6.77,18.36-7,1.95-.08,2-3.13,0-3-6.91.3-15.64,2.69-20.51,7.93-1.33,1.43.82,3.58,2.15,2.15Z"/><path class="cls-38" d="M331.76,48.36s8.23,11,7.78,18c-.28,4.43-3.28,9.57-3.67,11-3.25,11.76-.87,15.13-1.1,18.34,0,0-2,11.12-30.62,2.31L291.48,65.6Z"/><path class="cls-38" d="M294.56,73.24c-.26-.42-3-4.54-3.08-5-1.26-5.47-4.58-9.66,1.48-16.92,1.27-1.52,15.22-9.86,26.14-12.4a11.92,11.92,0,0,1,13.19,6,57.75,57.75,0,0,1,3,8.26c1.18,10.91-4.69-3.18-5.13,2.91,0-.15.05-.3.06-.45,0,0-.76,10.28-1.32,18.24-.35,5-.59,8.56-.61,9.06V83L310,98.65l-11.11-17h0Z"/><path class="cls-4" d="M318.4,38.78s10.13,9,2.24,16.23-22.91-7.1-22.91-7.1C304.87,43,311.82,39.57,318.4,38.78Z"/><path class="cls-39" d="M291.48,68.22c1.24.5,4.67,5,7.37,7.26,5.24,4.48,12.83,7.07,19.53,5.12A111,111,0,0,0,338,72.29s-3.53,13.63-1.55,21.35c.91,3.58.37,2.94.37,2.94,0,3.47-6,2.85-6,2.85-12.4,4.5-26.74-1.4-26.74-1.4L294.6,75.36Z"/><path class="cls-40" d="M339.74,93.19h0a2.1,2.1,0,0,1-.42,2.21c-2,2.18-7.54,7-17.57,7.79-8.59.62-13.86-.28-16.45-1a2.17,2.17,0,0,1-1.63-2.45l.12-.67a2.22,2.22,0,0,1,2.67-1.75c4.8,1,16.11,2.83,23.14-.66a25.77,25.77,0,0,0,6.48-4.26A2.26,2.26,0,0,1,339.74,93.19Z"/><path class="cls-11" d="M327.07,103l4.6-1.77a3.62,3.62,0,0,0,2.24-3.85h0a2.36,2.36,0,0,0-3.31-1.72L326,97.45a3.62,3.62,0,0,0-2.25,3.85h0A2.36,2.36,0,0,0,327.07,103Z"/><path class="cls-40" d="M327.94,101.45l2.66-1a2.09,2.09,0,0,0,1.3-2.23h0a1.36,1.36,0,0,0-1.92-1l-2.66,1a2.08,2.08,0,0,0-1.3,2.23h0A1.36,1.36,0,0,0,327.94,101.45Z"/><path class="cls-37" d="M319,40.39c.67,4.74,5.23,10.49-.54,13.42-6.29,3.18-14.49-3.19-19.1-7-1.49-1.25-3.65.89-2.15,2.15,6.12,5.1,15,11.68,23.27,7.33,7.57-4,2.36-10.34,1.45-16.69-.27-1.93-3.2-1.11-2.93.81Z"/><path class="cls-34" d="M352.07,194.4l.79-.4a.87.87,0,0,0,.39-1.2h0a.94.94,0,0,0-1.25-.38l-.79.4a.87.87,0,0,0-.39,1.2h0A.94.94,0,0,0,352.07,194.4Z"/><path class="cls-35" d="M353.36,193.18v-4.05a.92.92,0,0,0-.92-.9h0a.92.92,0,0,0-.93.9v4.05a.91.91,0,0,0,.93.89h0A.91.91,0,0,0,353.36,193.18Z"/><path class="cls-36" d="M349.6,177.94c1-1.91,3.72-4,5.17-3.58l3.83,5.93.57.17c2.09,2.6,12.78,13.63,15.68,17.59,1.47,2-2,3.25-2,3.25-7.26,1.3-14.48-1.87-14.48-1.87-3.11-2.05-1.08-4.85-4.25-9.32-.53-.75-1.8-1.53-2-.81l.27,4.77-1.73-.32s-1-6.82-2-11.42A4.92,4.92,0,0,1,349.6,177.94Z"/><path class="cls-4" d="M355.76,173.85l3.21,2.57s8.07,12.21,9.6,14.65c1.77,2.83-8.84,7.71-16.13-9C347.12,173.32,355.76,173.85,355.76,173.85Z"/><path class="cls-41" d="M338.23,21c1.47,4,1.86,8.82-.83,12.17-.5.61-1.08,1.15-1.63,1.72A25.2,25.2,0,0,0,332,39.83a2.63,2.63,0,0,1-.65.83,1.9,1.9,0,0,1-2.27-.41,12.84,12.84,0,0,1-1.36-2c-1.36-2-29.85,14-31.25,12-1.9-2.7,5.11-33.13,5.84-36.31.95-4.06,21.75,1.32,25.16-1.21a19.71,19.71,0,0,0,2-1.49h0c.86-.83,1.65-2.6,3.09-2,1.15.48,1.53,2.49,1.93,3.46C335.67,15.51,337.19,18.18,338.23,21Z"/><path class="cls-4" d="M317,44.94l5-18.56-12,3.69-4,15.15C305.05,47.69,313.42,54.42,317,44.94Z"/><path class="cls-4" d="M317.59,41.21l3.74.12a10.38,10.38,0,0,0,10.83-9.79l.63-18.38A10.31,10.31,0,0,0,322.67,2.7l-3.74-.12a10.38,10.38,0,0,0-10.83,9.79l-.63,18.38A10.31,10.31,0,0,0,317.59,41.21Z"/><path class="cls-41" d="M314.87,17.74c4.35-5.19,12.39,1,16.73-.62,4.71-1.76,3.11-6.43-.09-10.21-1.71-2-3.89-3.73-8.24-5.32-12.19-4.45-24.42.53-24.88,13.84,0,0-1.11,18.24,9.89,20.93L309,33.7S302.67,27,309.41,23c1.57-.92,1.64-.94,1.5-3.16S313.41,19.48,314.87,17.74Z"/><path class="cls-11" d="M328.78,30.86l-6.48,2.68a.63.63,0,0,0-.39.66c.15,1,.88,3.09,4.41,1.87a5.33,5.33,0,0,0,3.37-4.55A.65.65,0,0,0,328.78,30.86Z"/><path class="cls-42" d="M328.75,23.73c0,.79.32,1.42.72,1.42s.73-.63.73-1.42-.33-1.41-.73-1.41S328.75,23,328.75,23.73Z"/><path class="cls-42" d="M320.13,27.13c0,.78.32,1.42.73,1.42s.72-.64.72-1.42-.32-1.41-.72-1.41S320.13,26.35,320.13,27.13Z"/><path class="cls-42" d="M320.94,23.15A6.94,6.94,0,0,0,316.69,25c-.7.71-1.81-.37-1.11-1.08a8.58,8.58,0,0,1,5.36-2.29.77.77,0,0,1,0,1.53Z"/><path class="cls-42" d="M331.51,19.27a6.93,6.93,0,0,0-4.39,1.48c-.76.66-1.87-.42-1.12-1.07a8.59,8.59,0,0,1,5.51-1.93c1,.05,1,1.57,0,1.52Z"/><path class="cls-4" d="M305.36,31.14c1.67,1.35,3.59.88,4.28-1a5.69,5.69,0,0,0-1.78-5.92c-1.68-1.35-3.6-.88-4.29,1A5.69,5.69,0,0,0,305.36,31.14Z"/><path class="cls-41" d="M334.55,27.66s-.18-6.12-15.33-14.11-.69-.37-.69-.37l15-3.29S339.5,16.4,334.55,27.66Z"/><path class="cls-4" d="M287.08,63.58a112.25,112.25,0,0,0-.94,21c.19,6.85-1.82,14.69.11,21.4,1.33,4.66,5.11,6.55,9.63,7,7.23.75,14.5.47,21.73,1.36,5.82.72,5.77-8.41,0-9.13-6.34-.78-12.65-.91-19-1.18-.75,0-1.79-.05-2.36-.13-.27,0-1.86-.42-1.18-.24-.43-.11,0,.39-.05-.1.06.51-.12-.87-.16-1.17-.75-6.16.64-12.62.39-18.83A89.52,89.52,0,0,1,295.88,66c.9-5.74-7.9-8.22-8.8-2.42Z"/><path class="cls-4" d="M342.64,108.63h0a5.15,5.15,0,0,0,5.9-4.12l1.77-10.59a5,5,0,0,0-4.26-5.69h0a5.13,5.13,0,0,0-5.9,4.11l-1.77,10.59A5,5,0,0,0,342.64,108.63Z"/><path class="cls-39" d="M314.41,115.57v-1l1.28.49.28-.62,32.17-17.94a1.71,1.71,0,0,1,1.51.06l13.85,7.72v-.21l2.57,1v1h0a.52.52,0,0,1-.25.26l-33.47,18.68a1.81,1.81,0,0,1-1.52-.06l-16-9c-.25-.14-.37-.31-.37-.48Z"/><path class="cls-43" d="M332.36,124l33.47-18.68c.39-.21.34-.59-.11-.84l-16-9a1.74,1.74,0,0,0-1.52-.06l-33.47,18.67c-.39.22-.34.6.11.85l16,9A1.81,1.81,0,0,0,332.36,124Z"/><path class="cls-39" d="M330.07,112l8.1-4.52c.1,0,.08-.14,0-.2l-3.88-2.17a.42.42,0,0,0-.36,0l-8.11,4.52c-.09.06-.08.15,0,.21L329.7,112A.44.44,0,0,0,330.07,112Z"/><path class="cls-11" d="M333.21,103a3.53,3.53,0,0,1,1.54-2.25L368,82.52a.85.85,0,0,1,.73-.11h0a.43.43,0,0,1,.17.13l1.1,1.12-1-.09-3.16,19.73a3.46,3.46,0,0,1-1.54,2.25l-31.43,17.26-1,1.1-.13.27c-.63.13-2.15-.91-2.15-.91Z"/><path class="cls-29" d="M332.24,125l33.24-18.25a3.49,3.49,0,0,0,1.54-2.25l3.19-19.95c.14-.85-.33-1.22-1-.83L335.93,102a3.53,3.53,0,0,0-1.54,2.25l-3.19,20C331.06,125,331.53,125.39,332.24,125Z"/><path class="cls-4" d="M330.1,113.65h0a5,5,0,0,0-3.28-6.27l-9.31-2.95a5.2,5.2,0,0,0-6.49,3.18h0a5,5,0,0,0,3.29,6.27l9.3,3A5.2,5.2,0,0,0,330.1,113.65Z"/><path class="cls-11" d="M349.91,105.68c-.17,1.06.82,1.3,2.22.53A5.75,5.75,0,0,0,355,102.9c.17-1.06-.82-1.3-2.22-.53A5.82,5.82,0,0,0,349.91,105.68Z"/><path class="cls-41" d="M315.52,17.08s-12.18,15.41-11.1,25.49c.9,8.33,10.27,13.64,11.94,26.23.35,2.62-3.16,4-4.84,1.92a37.08,37.08,0,0,0-8.2-7.69c-8.14-5.37-9.62-11.09-8.85-15.28S298.63,13,298.63,13l18.68-1.79Z"/><path class="cls-38" d="M286.27,64.52c-1.38,10.53-1.36,21-2.29,31.56-.65,7.37,10.85,7.32,11.5,0,.92-10.55.91-21,2.29-31.56,1-7.31-10.55-7.24-11.5,0Z"/><path class="cls-4" d="M147.86,154.53a76.66,76.66,0,0,1-11.48,35.15c-1.7,2.73-2.73,4.16-5.2,1.89-5-4.55-7.13-12.74-9.08-18.85-1.78-5.58-10.6-3.2-8.81,2.42,2.92,9.15,12.84,36.35,27,24,5.56-4.85,8.5-13.41,11.37-20,3.44-7.91,4.62-16,5.29-24.59.46-5.86-8.67-5.83-9.13,0Z"/><path class="cls-21" d="M161.17,154.85c-2.74,23.23-10.07,38-20.22,45.52-5.33,3-10.33-5.47-8.29-10.55,10.11-9,13.66-23,14.62-39a7.32,7.32,0,0,1,8.68-4.06h0A6.85,6.85,0,0,1,161.17,154.85Z"/></g></g></g></svg>